<svg width="152" height="143" viewBox="0 0 152 143" fill="none" xmlns="http://www.w3.org/2000/svg">
<path d="M83.8825 0.363632H121.246L105.428 96.0909C103.883 105.182 100.292 113.182 94.6552 120.091C89.0189 126.955 81.9052 132.318 73.3143 136.182C64.7234 140 55.2461 141.909 44.8825 141.909C35.9734 141.909 28.0643 140.364 21.1552 137.273C14.2916 134.136 9.20068 129.227 5.8825 122.545C2.60977 115.818 1.8825 107.091 3.70068 96.3636H41.6098C41.1552 99.9091 41.2461 102.886 41.8825 105.295C42.5189 107.659 43.7007 109.455 45.428 110.682C47.1552 111.864 49.428 112.455 52.2461 112.455C55.0643 112.455 57.5416 111.841 59.678 110.614C61.8143 109.341 63.587 107.5 64.9961 105.091C66.4052 102.636 67.428 99.6364 68.0643 96.0909L83.8825 0.363632Z" fill="#171531"/>
<path d="M129.208 142.182C123.89 142.182 119.549 140.341 116.186 136.659C112.868 132.932 111.481 128.409 112.027 123.091C112.572 117.909 114.913 113.477 119.049 109.795C123.231 106.114 127.981 104.273 133.299 104.273C138.345 104.273 142.549 106.114 145.913 109.795C149.322 113.477 150.754 117.909 150.208 123.091C149.845 126.636 148.595 129.864 146.458 132.773C144.368 135.636 141.777 137.932 138.686 139.659C135.64 141.341 132.481 142.182 129.208 142.182Z" fill="#1463FF"/>
</svg>
