<svg width="27" height="25" viewBox="0 0 27 25" fill="none" xmlns="http://www.w3.org/2000/svg">
<path d="M14.8138 0.727272H21.041L18.4047 16.6818C18.1471 18.197 17.5486 19.5303 16.6092 20.6818C15.6698 21.8258 14.4842 22.7197 13.0524 23.3636C11.6206 24 10.041 24.3182 8.31375 24.3182C6.8289 24.3182 5.51072 24.0606 4.35921 23.5455C3.21527 23.0227 2.36678 22.2045 1.81375 21.0909C1.2683 19.9697 1.14708 18.5152 1.45011 16.7273H7.7683C7.69254 17.3182 7.70769 17.8144 7.81375 18.2159C7.91981 18.6098 8.11678 18.9091 8.40466 19.1136C8.69254 19.3106 9.07133 19.4091 9.54102 19.4091C10.0107 19.4091 10.4236 19.3068 10.7797 19.1023C11.1357 18.8902 11.4312 18.5833 11.666 18.1818C11.9009 17.7727 12.0713 17.2727 12.1774 16.6818L14.8138 0.727272Z" fill="#6D9886"/>
<path d="M22.3681 24.3636C21.4817 24.3636 20.7582 24.0568 20.1976 23.4432C19.6446 22.822 19.4135 22.0682 19.5044 21.1818C19.5953 20.3182 19.9855 19.5795 20.6749 18.9659C21.3719 18.3523 22.1635 18.0455 23.0499 18.0455C23.8908 18.0455 24.5916 18.3523 25.1522 18.9659C25.7203 19.5795 25.959 20.3182 25.8681 21.1818C25.8075 21.7727 25.5991 22.3106 25.2431 22.7955C24.8946 23.2727 24.4628 23.6553 23.9476 23.9432C23.44 24.2235 22.9135 24.3636 22.3681 24.3636Z" fill="#222222"/>
</svg>
